<svg width="24" height="24" viewBox="0 0 24 24" fill="none" xmlns="http://www.w3.org/2000/svg">
<g id=" Outline / arrow-right">
<rect width="24" height="24" rx="3" fill="#F2F2F2"/>
<path id="Verctor" fill-rule="evenodd" clip-rule="evenodd" d="M5.85715 12.8572H16.0272L12.9132 16.5944C12.6098 16.9578 12.6595 17.4986 13.0229 17.8012C13.3872 18.1046 13.9272 18.0549 14.2306 17.6915L18.5164 12.5486C18.5498 12.5083 18.5661 12.4612 18.5909 12.4166C18.6115 12.3806 18.6364 12.3498 18.6518 12.3103C18.6904 12.2118 18.7135 12.108 18.7135 12.0035C18.7135 12.0026 18.7144 12.0009 18.7144 12C18.7144 11.9992 18.7135 11.9975 18.7135 11.9966C18.7135 11.892 18.6904 11.7883 18.6518 11.6898C18.6364 11.6503 18.6115 11.6195 18.5909 11.5835C18.5661 11.5389 18.5498 11.4917 18.5164 11.4515L14.2306 6.30857C14.0601 6.10543 13.8166 6 13.5715 6C13.3778 6 13.1832 6.06514 13.0229 6.19886C12.6595 6.50143 12.6098 7.04229 12.9132 7.40572L16.0272 11.1429H5.85715C5.384 11.1429 5 11.5269 5 12C5 12.4732 5.384 12.8572 5.85715 12.8572Z" fill="#757D8A"/>
</g>
</svg>
