<svg width="24" height="24" viewBox="0 0 24 24" fill="none" xmlns="http://www.w3.org/2000/svg">
<g opacity="0.8">
<path fill-rule="evenodd" clip-rule="evenodd" d="M18.6903 15.9629L13.0003 18.6069V11.8909L19.0003 9.10391V15.5389C19.0003 15.7129 18.8823 15.8749 18.6903 15.9629ZM5.30333 15.9639C5.11433 15.8759 4.99833 15.7139 5.00033 15.5319V9.10391L11.0003 11.8909V18.6089L5.30333 15.9639ZM11.7073 5.06391C11.7983 5.02091 11.8993 4.99991 12.0003 4.99991C12.1003 4.99991 12.2013 5.02091 12.2923 5.06391L17.6213 7.53791L12.0003 10.1499L6.37833 7.53791L11.7073 5.06391ZM20.6563 7.25891C20.6533 7.25091 20.6543 7.24191 20.6503 7.23391C20.6473 7.22591 20.6393 7.22091 20.6343 7.21291C20.5883 7.13691 20.5323 7.06991 20.4793 6.99991C20.4483 6.96591 20.4233 6.92791 20.3893 6.89891C20.1543 6.62291 19.8773 6.37991 19.5333 6.22091L13.1333 3.24791C13.1323 3.24791 13.1313 3.24791 13.1313 3.24691C12.4123 2.91491 11.5873 2.91591 10.8663 3.24791L4.46933 6.21991C4.12533 6.37891 3.84733 6.62091 3.61233 6.89691C3.57533 6.92791 3.54833 6.96991 3.51533 7.00691C3.46333 7.07391 3.41033 7.13891 3.36633 7.21091C3.36133 7.21991 3.35333 7.22591 3.34933 7.23391C3.34533 7.24291 3.34633 7.25191 3.34233 7.26091C3.13133 7.62291 3.00033 8.02991 3.00033 8.45791V15.5249C2.99233 16.4749 3.56433 17.3589 4.45833 17.7769L10.8573 20.7489C11.2193 20.9179 11.6073 21.0019 11.9963 21.0019C12.3843 21.0019 12.7723 20.9179 13.1333 20.7499L19.5303 17.7779C20.4223 17.3659 20.9993 16.4879 21.0003 15.5399V8.45691C20.9993 8.02891 20.8683 7.62191 20.6563 7.25891Z" fill="#757D8A"/>
</g>
</svg>
