<svg width="488" height="237" viewBox="0 0 488 237" fill="none" xmlns="http://www.w3.org/2000/svg">
<path d="M469.834 233.126C469.041 233.126 468.331 233.023 467.706 232.818C467.081 232.613 466.535 232.319 466.068 231.936L466.488 231.012C466.815 231.255 467.141 231.46 467.468 231.628C467.804 231.787 468.163 231.908 468.546 231.992C468.929 232.067 469.358 232.104 469.834 232.104C470.665 232.104 471.281 231.95 471.682 231.642C472.083 231.334 472.284 230.923 472.284 230.41C472.284 229.971 472.144 229.635 471.864 229.402C471.584 229.169 471.094 228.982 470.394 228.842L468.924 228.548C468.019 228.361 467.342 228.058 466.894 227.638C466.455 227.218 466.236 226.649 466.236 225.93C466.236 225.342 466.385 224.829 466.684 224.39C466.992 223.951 467.421 223.611 467.972 223.368C468.523 223.125 469.162 223.004 469.89 223.004C470.59 223.004 471.229 223.111 471.808 223.326C472.387 223.531 472.881 223.835 473.292 224.236L472.886 225.132C472.447 224.74 471.985 224.46 471.5 224.292C471.024 224.115 470.483 224.026 469.876 224.026C469.111 224.026 468.504 224.194 468.056 224.53C467.617 224.857 467.398 225.305 467.398 225.874C467.398 226.331 467.538 226.691 467.818 226.952C468.098 227.204 468.56 227.395 469.204 227.526L470.688 227.82C471.64 228.016 472.34 228.31 472.788 228.702C473.236 229.094 473.46 229.645 473.46 230.354C473.46 230.895 473.311 231.376 473.012 231.796C472.723 232.216 472.307 232.543 471.766 232.776C471.225 233.009 470.581 233.126 469.834 233.126ZM477.997 233.126C477.371 233.126 476.825 232.981 476.359 232.692C475.892 232.393 475.528 231.973 475.267 231.432C475.015 230.891 474.889 230.242 474.889 229.486C474.889 228.721 475.015 228.067 475.267 227.526C475.528 226.985 475.892 226.569 476.359 226.28C476.825 225.991 477.371 225.846 477.997 225.846C478.631 225.846 479.177 226.009 479.635 226.336C480.101 226.653 480.409 227.087 480.559 227.638H480.391L480.545 225.972H481.637C481.609 226.243 481.581 226.518 481.553 226.798C481.534 227.069 481.525 227.335 481.525 227.596V233H480.391V231.348H480.545C480.395 231.899 480.087 232.333 479.621 232.65C479.154 232.967 478.613 233.126 477.997 233.126ZM478.221 232.202C478.893 232.202 479.425 231.973 479.817 231.516C480.209 231.049 480.405 230.373 480.405 229.486C480.405 228.59 480.209 227.913 479.817 227.456C479.425 226.989 478.893 226.756 478.221 226.756C477.558 226.756 477.026 226.989 476.625 227.456C476.233 227.913 476.037 228.59 476.037 229.486C476.037 230.373 476.233 231.049 476.625 231.516C477.026 231.973 477.558 232.202 478.221 232.202ZM486.321 233.126C485.631 233.126 485.103 232.93 484.739 232.538C484.375 232.137 484.193 231.535 484.193 230.732V226.854H482.821V225.972H484.193V224.054L485.327 223.732V225.972H487.343V226.854H485.327V230.606C485.327 231.166 485.421 231.567 485.607 231.81C485.803 232.043 486.093 232.16 486.475 232.16C486.653 232.16 486.811 232.146 486.951 232.118C487.091 232.081 487.217 232.039 487.329 231.992V232.944C487.199 233 487.04 233.042 486.853 233.07C486.676 233.107 486.499 233.126 486.321 233.126Z" fill="#92929D"/>
<rect opacity="0.8" x="469" y="169" width="16" height="34" rx="4" fill="#E7892C"/>
<path d="M389.547 233V223.13H395.707V224.082H390.709V227.54H395.399V228.492H390.709V233H389.547ZM397.229 233V227.666C397.229 227.386 397.22 227.101 397.201 226.812C397.192 226.523 397.173 226.243 397.145 225.972H398.237L398.377 227.68L398.181 227.694C398.275 227.274 398.438 226.929 398.671 226.658C398.905 226.387 399.18 226.187 399.497 226.056C399.815 225.916 400.146 225.846 400.491 225.846C400.631 225.846 400.753 225.851 400.855 225.86C400.967 225.869 401.07 225.893 401.163 225.93L401.149 226.938C401.009 226.891 400.879 226.863 400.757 226.854C400.645 226.835 400.515 226.826 400.365 226.826C399.955 226.826 399.595 226.924 399.287 227.12C398.989 227.316 398.76 227.568 398.601 227.876C398.452 228.184 398.377 228.511 398.377 228.856V233H397.229ZM402.455 233V225.972H403.589V233H402.455ZM402.315 224.376V223.102H403.715V224.376H402.315Z" fill="#92929D"/>
<rect opacity="0.8" x="389" y="33" width="16" height="170" rx="4" fill="#E7892C"/>
<path d="M309.886 233V224.348H306.512V223.13H314.716V224.348H311.342V233H309.886ZM316.064 233V222.696H317.478V227.442H317.282C317.488 226.91 317.819 226.509 318.276 226.238C318.734 225.958 319.261 225.818 319.858 225.818C320.698 225.818 321.324 226.051 321.734 226.518C322.145 226.975 322.35 227.671 322.35 228.604V233H320.936V228.688C320.936 228.081 320.815 227.643 320.572 227.372C320.339 227.092 319.966 226.952 319.452 226.952C318.855 226.952 318.374 227.139 318.01 227.512C317.656 227.876 317.478 228.361 317.478 228.968V233H316.064ZM326.981 233.126C326.132 233.126 325.492 232.897 325.063 232.44C324.643 231.973 324.433 231.259 324.433 230.298V225.944H325.847V230.27C325.847 230.858 325.968 231.292 326.211 231.572C326.454 231.852 326.822 231.992 327.317 231.992C327.877 231.992 328.33 231.805 328.675 231.432C329.02 231.059 329.193 230.564 329.193 229.948V225.944H330.607V233H329.235V231.488H329.417C329.221 232.011 328.908 232.417 328.479 232.706C328.05 232.986 327.55 233.126 326.981 233.126Z" fill="#11142D"/>
<rect x="312" width="16" height="203" rx="4" fill="#E7892C"/>
<path d="M232.927 233L229.483 223.13H230.701L233.711 232.02H233.221L236.385 223.13H237.309L240.305 232.02H239.857L242.951 223.13H244.099L240.627 233H239.591L236.679 224.446H236.973L233.935 233H232.927ZM248.099 233.126C246.998 233.126 246.13 232.809 245.495 232.174C244.86 231.53 244.543 230.639 244.543 229.5C244.543 228.763 244.683 228.123 244.963 227.582C245.243 227.031 245.635 226.607 246.139 226.308C246.643 226 247.222 225.846 247.875 225.846C248.519 225.846 249.06 225.981 249.499 226.252C249.938 226.523 250.274 226.91 250.507 227.414C250.74 227.909 250.857 228.497 250.857 229.178V229.598H245.411V228.884H250.115L249.877 229.066C249.877 228.319 249.709 227.736 249.373 227.316C249.037 226.896 248.538 226.686 247.875 226.686C247.175 226.686 246.629 226.933 246.237 227.428C245.845 227.913 245.649 228.571 245.649 229.402V229.528C245.649 230.405 245.864 231.073 246.293 231.53C246.732 231.978 247.343 232.202 248.127 232.202C248.547 232.202 248.939 232.141 249.303 232.02C249.676 231.889 250.031 231.679 250.367 231.39L250.759 232.188C250.451 232.487 250.059 232.72 249.583 232.888C249.116 233.047 248.622 233.126 248.099 233.126ZM255.364 233.126C254.748 233.126 254.207 232.981 253.74 232.692C253.274 232.393 252.91 231.973 252.648 231.432C252.396 230.891 252.27 230.242 252.27 229.486C252.27 228.721 252.396 228.067 252.648 227.526C252.91 226.985 253.274 226.569 253.74 226.28C254.207 225.991 254.748 225.846 255.364 225.846C255.999 225.846 256.545 226.005 257.002 226.322C257.469 226.639 257.782 227.069 257.94 227.61H257.772V222.696H258.906V233H257.786V231.32H257.94C257.791 231.88 257.483 232.323 257.016 232.65C256.55 232.967 255.999 233.126 255.364 233.126ZM255.602 232.202C256.265 232.202 256.797 231.973 257.198 231.516C257.6 231.049 257.8 230.373 257.8 229.486C257.8 228.59 257.6 227.913 257.198 227.456C256.797 226.989 256.265 226.756 255.602 226.756C254.94 226.756 254.408 226.989 254.006 227.456C253.614 227.913 253.418 228.59 253.418 229.486C253.418 230.373 253.614 231.049 254.006 231.516C254.408 231.973 254.94 232.202 255.602 232.202Z" fill="#92929D"/>
<rect opacity="0.8" x="236" y="134" width="16" height="69" rx="4" fill="#E7892C"/>
<path d="M158.948 233V224.11H155.462V223.13H163.582V224.11H160.11V233H158.948ZM166.455 233.126C165.624 233.126 164.994 232.897 164.565 232.44C164.145 231.983 163.935 231.283 163.935 230.34V225.972H165.069V230.312C165.069 230.956 165.2 231.432 165.461 231.74C165.722 232.039 166.128 232.188 166.679 232.188C167.295 232.188 167.79 231.987 168.163 231.586C168.536 231.185 168.723 230.648 168.723 229.976V225.972H169.857V233H168.751V231.418H168.933C168.737 231.959 168.42 232.379 167.981 232.678C167.552 232.977 167.043 233.126 166.455 233.126ZM175.291 233.126C174.19 233.126 173.322 232.809 172.687 232.174C172.053 231.53 171.735 230.639 171.735 229.5C171.735 228.763 171.875 228.123 172.155 227.582C172.435 227.031 172.827 226.607 173.331 226.308C173.835 226 174.414 225.846 175.067 225.846C175.711 225.846 176.253 225.981 176.691 226.252C177.13 226.523 177.466 226.91 177.699 227.414C177.933 227.909 178.049 228.497 178.049 229.178V229.598H172.603V228.884H177.307L177.069 229.066C177.069 228.319 176.901 227.736 176.565 227.316C176.229 226.896 175.73 226.686 175.067 226.686C174.367 226.686 173.821 226.933 173.429 227.428C173.037 227.913 172.841 228.571 172.841 229.402V229.528C172.841 230.405 173.056 231.073 173.485 231.53C173.924 231.978 174.535 232.202 175.319 232.202C175.739 232.202 176.131 232.141 176.495 232.02C176.869 231.889 177.223 231.679 177.559 231.39L177.951 232.188C177.643 232.487 177.251 232.72 176.775 232.888C176.309 233.047 175.814 233.126 175.291 233.126Z" fill="#92929D"/>
<rect opacity="0.8" x="159" y="59" width="16" height="144" rx="4" fill="#E7892C"/>
<path d="M77.5246 233V223.13H78.5326L82.4946 232.076H82.0886L86.0506 223.13H87.0586V233H85.9946V224.628H86.4146L82.6766 233H81.9066L78.1546 224.628H78.5746V233H77.5246ZM92.3982 233.126C91.7262 233.126 91.1382 232.981 90.6342 232.692C90.1395 232.393 89.7569 231.973 89.4862 231.432C89.2155 230.881 89.0802 230.233 89.0802 229.486C89.0802 228.73 89.2155 228.081 89.4862 227.54C89.7569 226.999 90.1395 226.583 90.6342 226.294C91.1382 225.995 91.7262 225.846 92.3982 225.846C93.0795 225.846 93.6675 225.995 94.1622 226.294C94.6662 226.583 95.0535 226.999 95.3242 227.54C95.6042 228.081 95.7442 228.73 95.7442 229.486C95.7442 230.233 95.6042 230.881 95.3242 231.432C95.0535 231.973 94.6662 232.393 94.1622 232.692C93.6675 232.981 93.0795 233.126 92.3982 233.126ZM92.3982 232.202C93.0702 232.202 93.6022 231.973 93.9942 231.516C94.3862 231.049 94.5822 230.373 94.5822 229.486C94.5822 228.59 94.3815 227.913 93.9802 227.456C93.5882 226.989 93.0609 226.756 92.3982 226.756C91.7355 226.756 91.2082 226.989 90.8162 227.456C90.4242 227.913 90.2282 228.59 90.2282 229.486C90.2282 230.373 90.4242 231.049 90.8162 231.516C91.2082 231.973 91.7355 232.202 92.3982 232.202ZM97.6242 233V227.596C97.6242 227.335 97.6102 227.069 97.5822 226.798C97.5636 226.518 97.5402 226.243 97.5122 225.972H98.6042L98.7442 227.512H98.5762C98.7816 226.971 99.1082 226.56 99.5562 226.28C100.014 225.991 100.541 225.846 101.138 225.846C101.969 225.846 102.594 226.07 103.014 226.518C103.444 226.957 103.658 227.652 103.658 228.604V233H102.524V228.674C102.524 228.011 102.389 227.531 102.118 227.232C101.857 226.924 101.446 226.77 100.886 226.77C100.233 226.77 99.7149 226.971 99.3322 227.372C98.9496 227.773 98.7582 228.31 98.7582 228.982V233H97.6242Z" fill="#92929D"/>
<rect opacity="0.8" x="83" y="129" width="16" height="74" rx="4" fill="#E7892C"/>
<path d="M4.83707 233.126C4.04374 233.126 3.3344 233.023 2.70907 232.818C2.08374 232.613 1.53774 232.319 1.07107 231.936L1.49107 231.012C1.81774 231.255 2.1444 231.46 2.47107 231.628C2.80707 231.787 3.1664 231.908 3.54907 231.992C3.93174 232.067 4.36107 232.104 4.83707 232.104C5.66774 232.104 6.28374 231.95 6.68507 231.642C7.0864 231.334 7.28707 230.923 7.28707 230.41C7.28707 229.971 7.14707 229.635 6.86707 229.402C6.58707 229.169 6.09707 228.982 5.39707 228.842L3.92707 228.548C3.02174 228.361 2.34507 228.058 1.89707 227.638C1.4584 227.218 1.23907 226.649 1.23907 225.93C1.23907 225.342 1.3884 224.829 1.68707 224.39C1.99507 223.951 2.4244 223.611 2.97507 223.368C3.52574 223.125 4.16507 223.004 4.89307 223.004C5.59307 223.004 6.2324 223.111 6.81107 223.326C7.38974 223.531 7.8844 223.835 8.29507 224.236L7.88907 225.132C7.4504 224.74 6.9884 224.46 6.50307 224.292C6.02707 224.115 5.48574 224.026 4.87907 224.026C4.11374 224.026 3.50707 224.194 3.05907 224.53C2.6204 224.857 2.40107 225.305 2.40107 225.874C2.40107 226.331 2.54107 226.691 2.82107 226.952C3.10107 227.204 3.56307 227.395 4.20707 227.526L5.69107 227.82C6.64307 228.016 7.34307 228.31 7.79107 228.702C8.23907 229.094 8.46307 229.645 8.46307 230.354C8.46307 230.895 8.31374 231.376 8.01507 231.796C7.72574 232.216 7.3104 232.543 6.76907 232.776C6.22774 233.009 5.58374 233.126 4.83707 233.126ZM12.8037 233.126C11.9731 233.126 11.3431 232.897 10.9137 232.44C10.4937 231.983 10.2837 231.283 10.2837 230.34V225.972H11.4177V230.312C11.4177 230.956 11.5484 231.432 11.8097 231.74C12.0711 232.039 12.4771 232.188 13.0277 232.188C13.6437 232.188 14.1384 231.987 14.5117 231.586C14.8851 231.185 15.0717 230.648 15.0717 229.976V225.972H16.2057V233H15.0997V231.418H15.2817C15.0857 231.959 14.7684 232.379 14.3297 232.678C13.9004 232.977 13.3917 233.126 12.8037 233.126ZM18.5178 233V227.596C18.5178 227.335 18.5038 227.069 18.4758 226.798C18.4571 226.518 18.4338 226.243 18.4058 225.972H19.4978L19.6378 227.512H19.4698C19.6751 226.971 20.0018 226.56 20.4498 226.28C20.9071 225.991 21.4345 225.846 22.0318 225.846C22.8625 225.846 23.4878 226.07 23.9078 226.518C24.3371 226.957 24.5518 227.652 24.5518 228.604V233H23.4178V228.674C23.4178 228.011 23.2825 227.531 23.0118 227.232C22.7505 226.924 22.3398 226.77 21.7798 226.77C21.1265 226.77 20.6085 226.971 20.2258 227.372C19.8431 227.773 19.6518 228.31 19.6518 228.982V233H18.5178Z" fill="#92929D"/>
<rect opacity="0.8" x="5" y="150" width="16" height="53" rx="4" fill="#E7892C"/>
</svg>
