<svg width="24" height="24" viewBox="0 0 24 24" fill="none" xmlns="http://www.w3.org/2000/svg">
<g opacity="0.8">
<path fill-rule="evenodd" clip-rule="evenodd" d="M11.9831 7.3229L6.36614 12.9399L6.10214 15.8959L9.07914 15.6249L14.6791 10.0189L11.9831 7.3229ZM17.9661 6.7289L15.2711 4.0349L13.3231 5.9829L16.0181 8.6789L17.9661 6.7289ZM5.09114 17.9959C5.06014 17.9989 5.03014 17.9999 5.00014 17.9999C4.73614 17.9999 4.48114 17.8959 4.29314 17.7069C4.08314 17.4969 3.97714 17.2049 4.00414 16.9099L4.38314 12.7389C4.42514 12.2819 4.62714 11.8509 4.95214 11.5259L13.9481 2.5289C14.6501 1.8249 15.9241 1.8599 16.6641 2.5989L19.4021 5.3369H19.4031C20.1691 6.1039 20.1991 7.3209 19.4711 8.0509L10.4741 17.0479C10.1491 17.3739 9.71914 17.5749 9.26114 17.6169L5.09114 17.9959ZM5 20H19C19.55 20 20 20.45 20 21C20 21.55 19.55 22 19 22H5C4.45 22 4 21.55 4 21C4 20.45 4.45 20 5 20Z" fill="#757D8A"/>
</g>
</svg>
