<svg width="21" height="20" viewBox="0 0 21 20" fill="none" xmlns="http://www.w3.org/2000/svg">
<path fill-rule="evenodd" clip-rule="evenodd" d="M3.40287 9.62209C4.51887 10.0051 5.40787 10.9391 5.77987 12.1231L5.81987 12.2431C6.24587 13.4991 6.07287 14.8511 5.35887 15.8651C5.22887 16.0491 5.25787 16.2691 5.39487 16.3731L7.46687 17.9471C7.53987 18.0021 7.61087 18.0021 7.65487 17.9971C7.70487 17.9891 7.77787 17.9621 7.83687 17.8781L8.06787 17.5501C8.75687 16.5731 9.86687 15.9701 11.0389 15.9361C12.3549 15.9091 13.5369 16.5121 14.2729 17.5751L14.3909 17.7461C14.4499 17.8301 14.5219 17.8581 14.5729 17.8661C14.6169 17.8751 14.6889 17.8721 14.7609 17.8161L16.8219 16.2611C16.9659 16.1531 16.9979 15.9221 16.8909 15.7671L16.6309 15.3921C15.9609 14.4241 15.7619 13.1681 16.0989 12.0331C16.4649 10.7971 17.3959 9.81909 18.5909 9.41909L18.7919 9.35109C18.9529 9.29809 19.0399 9.09809 18.9829 8.91409L18.1959 6.39309C18.1589 6.27509 18.0829 6.22209 18.0409 6.20009C17.9809 6.16909 17.9159 6.16409 17.8539 6.18509L17.5139 6.29809C16.3509 6.68509 15.0679 6.47509 14.0829 5.73409L13.9749 5.65309C13.0389 4.94909 12.4819 3.81409 12.4859 2.61809L12.4879 2.33809C12.4879 2.20509 12.4249 2.12209 12.3869 2.08409C12.3509 2.04709 12.2899 2.00309 12.2039 2.00309L9.65687 2.00009C9.50087 2.00009 9.37387 2.14909 9.37287 2.33309L9.37187 2.57509C9.36687 3.79009 8.79787 4.94609 7.84987 5.66909L7.72087 5.76709C6.67787 6.56009 5.31787 6.78409 4.08587 6.36409C4.03887 6.34809 3.99487 6.35109 3.95287 6.37309C3.92087 6.38909 3.86287 6.43009 3.83487 6.52109L3.01787 9.11709C2.95887 9.30609 3.05587 9.50309 3.23887 9.56609L3.40287 9.62209ZM7.61387 20.0001C7.12787 20.0001 6.65587 19.8421 6.25787 19.5391L4.18587 17.9661C3.19587 17.2161 2.97687 15.7731 3.69687 14.7501C4.07087 14.2201 4.14787 13.5391 3.92787 12.8931L3.87287 12.7251C3.68987 12.1431 3.27187 11.6911 2.75487 11.5141H2.75387L2.59087 11.4571C1.37287 11.0401 0.722868 9.74909 1.10987 8.51709L1.92587 5.92209C2.11087 5.33509 2.50987 4.86109 3.04987 4.58809C3.57787 4.32209 4.17487 4.28109 4.73287 4.47209C5.33187 4.67609 5.99687 4.56509 6.50987 4.17509L6.63887 4.07709C7.09487 3.72909 7.36987 3.16409 7.37187 2.56709L7.37287 2.32609C7.37787 1.04209 8.40287 9.15527e-05 9.65587 9.15527e-05H9.65987L12.2069 0.00309155C12.8089 0.00409155 13.3769 0.242092 13.8049 0.673092C14.2479 1.11809 14.4899 1.71309 14.4879 2.34809L14.4859 2.62709C14.4839 3.19309 14.7429 3.72809 15.1799 4.05609L15.2869 4.13709C15.7459 4.48209 16.3439 4.58109 16.8809 4.40109L17.2199 4.28809C17.7969 4.09609 18.4109 4.14309 18.9519 4.42009C19.5069 4.70409 19.9169 5.19309 20.1049 5.79809L20.8919 8.31909C21.2719 9.53709 20.6139 10.8511 19.4269 11.2481L19.2259 11.3151C18.6499 11.5091 18.1969 11.9891 18.0159 12.6011C17.8499 13.1621 17.9459 13.7791 18.2749 14.2531L18.5349 14.6281C19.2489 15.6601 19.0209 17.1081 18.0269 17.8571L15.9659 19.4131C15.4709 19.7871 14.8639 19.9381 14.2549 19.8411C13.6409 19.7421 13.1049 19.4021 12.7459 18.8841L12.6279 18.7121C12.2779 18.2081 11.7179 17.9021 11.1309 17.9351C10.5429 17.9511 10.0349 18.2301 9.70287 18.7021L9.47187 19.0301C9.10987 19.5431 8.57287 19.8781 7.96187 19.9741C7.84487 19.9921 7.72887 20.0001 7.61387 20.0001ZM11.0001 8.49999C10.1731 8.49999 9.50007 9.17299 9.50007 9.99999C9.50007 10.827 10.1731 11.5 11.0001 11.5C11.8271 11.5 12.5001 10.827 12.5001 9.99999C12.5001 9.17299 11.8271 8.49999 11.0001 8.49999ZM11.0001 13.5C9.07007 13.5 7.50007 11.93 7.50007 9.99999C7.50007 8.06999 9.07007 6.49999 11.0001 6.49999C12.9301 6.49999 14.5001 8.06999 14.5001 9.99999C14.5001 11.93 12.9301 13.5 11.0001 13.5Z" fill="#757D8A"/>
</svg>
